<svg id="Calque_1" data-name="Calque 1"
  xmlns="http://www.w3.org/2000/svg" viewBox="0 0 60 60">
  <title>bell</title>
  <path d="M55,44.78H53c-3.28-5.69-4.12-10.94-4.46-18.39A18.55,18.55,0,0,0,38,10.23c0-.05,0-.11,0-.16a8,8,0,1,0-16.08,0s0,.11,0,.16A18.55,18.55,0,0,0,11.43,26.38c-.34,7.46-1.18,12.71-4.46,18.4H5a2,2,0,0,0,0,4.08H21.1c0,.06,0,.13,0,.19a8.92,8.92,0,0,0,17.84,0c0-.06,0-.13,0-.19H55a2,2,0,0,0,0-4.08ZM30,6.11a4,4,0,0,1,3.76,2.8,20.37,20.37,0,0,0-7.52,0A4,4,0,0,1,30,6.11Zm4.84,42.94a4.84,4.84,0,0,1-9.68,0c0-.06,0-.13,0-.19h9.64C34.82,48.92,34.84,49,34.84,49.05ZM11.6,44.78c2.78-5.64,3.58-11.14,3.91-18.21.31-6.71,5-13.93,14.49-13.93s14.18,7.22,14.49,13.93c.33,7.07,1.13,12.57,3.91,18.21Z"/>
</svg>