<svg id="Calque_1" data-name="Calque 1" xmlns="http://www.w3.org/2000/svg" viewBox="0 0 60 60"><title>calendar-check</title><path d="M40.25,30.24,26.8,45.37l-6.52-7a2.19,2.19,0,1,0-3.21,3l8.15,8.79a2.19,2.19,0,0,0,1.61.7h0a2.18,2.18,0,0,0,1.61-.74L43.53,33.15a2.19,2.19,0,1,0-3.28-2.91Z"/><path d="M49.54,4.79H43.67V1.71a1.46,1.46,0,1,0-2.92,0V4.79H19.45V1.71a1.47,1.47,0,0,0-2.93,0V4.79H10.46A9.51,9.51,0,0,0,1,14.3V50.24a9.51,9.51,0,0,0,9.51,9.51H49.54a9.51,9.51,0,0,0,9.51-9.51V14.3A9.51,9.51,0,0,0,49.54,4.79ZM10.46,9.18h6.06v3.29a2.86,2.86,0,1,0,2.93,0V9.18h21.3v3.29a2.86,2.86,0,1,0,2.92,0V9.18h5.87a5.12,5.12,0,0,1,5.12,5.12v6.82H5.34V14.3A5.12,5.12,0,0,1,10.46,9.18ZM49.54,55.36H10.46a5.12,5.12,0,0,1-5.12-5.12V25.51H54.66V50.24A5.12,5.12,0,0,1,49.54,55.36Z"/></svg>