<svg id="Calque_1" data-name="Calque 1" xmlns="http://www.w3.org/2000/svg" viewBox="0 0 60 60"><title>calendar</title><path d="M49.57,4.75H43.69V1.67a1.47,1.47,0,0,0-2.93,0V4.75H19.43V1.67a1.47,1.47,0,0,0-2.93,0V4.75H10.43A9.53,9.53,0,0,0,.91,14.27v36a9.53,9.53,0,0,0,9.52,9.52H49.57a9.53,9.53,0,0,0,9.52-9.52v-36A9.53,9.53,0,0,0,49.57,4.75ZM10.43,9.15H16.5v3.29a2.87,2.87,0,1,0,2.93,0V9.15H40.76v3.29a2.87,2.87,0,1,0,2.93,0V9.15h5.88a5.13,5.13,0,0,1,5.13,5.12v6.84H5.3V14.27A5.13,5.13,0,0,1,10.43,9.15ZM49.57,55.4H10.43A5.13,5.13,0,0,1,5.3,50.27V25.5H54.7V50.27A5.13,5.13,0,0,1,49.57,55.4Z"/><rect x="11.88" y="42.73" width="7.77" height="6.92"/><rect x="11.88" y="30.39" width="7.77" height="6.92"/><rect x="26.33" y="42.73" width="7.77" height="6.92"/><rect x="26.33" y="30.39" width="7.77" height="6.92"/><rect x="40.31" y="42.73" width="7.77" height="6.92"/><rect x="40.31" y="30.39" width="7.77" height="6.92"/></svg>