<svg id="Calque_1" data-name="Calque 1" xmlns="http://www.w3.org/2000/svg" viewBox="0 0 60 60"><title>camera</title><path d="M30,47.19A13.78,13.78,0,1,1,43.78,33.41,13.79,13.79,0,0,1,30,47.19Zm0-23.42a9.64,9.64,0,1,0,9.64,9.64A9.66,9.66,0,0,0,30,23.77Z"/><path d="M50,57H10A9.82,9.82,0,0,1,.2,47.19V20.65A9.82,9.82,0,0,1,10,10.84H50a9.82,9.82,0,0,1,9.81,9.81V47.19A9.82,9.82,0,0,1,50,57ZM10,15a5.68,5.68,0,0,0-5.67,5.67V47.19A5.68,5.68,0,0,0,10,52.86H50a5.68,5.68,0,0,0,5.67-5.67V20.65A5.68,5.68,0,0,0,50,15Z"/><path d="M18.66,7.14H8.59A2.07,2.07,0,0,1,8.59,3H18.66a2.07,2.07,0,1,1,0,4.14Z"/></svg>