<svg id="Calque_1" data-name="Calque 1" xmlns="http://www.w3.org/2000/svg" viewBox="0 0 60 60"><title>comments</title><circle cx="15.59" cy="35.04" r="2.99"/><circle cx="26.39" cy="35.04" r="2.99"/><circle cx="36.63" cy="35.04" r="2.99"/><path d="M50.91,8.72H16.21a9.15,9.15,0,0,0-8.7,6.46A8,8,0,0,0-.15,23.12V44.81a8,8,0,0,0,8,8h2l.48,5.32a2.1,2.1,0,0,0,3.48,1.38l7.57-6.7H44.78a8,8,0,0,0,7.83-6.56A9.11,9.11,0,0,0,60,37.28V17.81A9.1,9.1,0,0,0,50.91,8.72ZM48.54,44.81a3.76,3.76,0,0,1-3.76,3.76H20.51a2.11,2.11,0,0,0-1.39.53l-5.05,4.47-.27-3.09a2.11,2.11,0,0,0-2.09-1.91H7.81a3.77,3.77,0,0,1-3.76-3.76V23.12a3.77,3.77,0,0,1,3.76-3.76h37a3.76,3.76,0,0,1,3.76,3.76Zm7.26-7.53a4.89,4.89,0,0,1-3.06,4.53V23.12a8,8,0,0,0-8-8H12.11a4.9,4.9,0,0,1,4.1-2.25h34.7a4.9,4.9,0,0,1,4.89,4.9Z"/></svg>