<svg id="Calque_1" data-name="Calque 1" xmlns="http://www.w3.org/2000/svg" viewBox="0 0 60 60"><title>gear</title><path d="M30,40A10,10,0,1,1,40,30,10,10,0,0,1,30,40Zm0-15.69A5.73,5.73,0,1,0,35.73,30,5.74,5.74,0,0,0,30,24.27Z"/><path d="M24,59.45l-1.88-.51A30.09,30.09,0,0,1,8.91,51.33L7.52,50l1.26-1.49a5.73,5.73,0,0,0-5.39-9.32l-1.92.33L1,37.6A29.89,29.89,0,0,1,1,22.4l.49-1.88,1.92.33a5.72,5.72,0,0,0,5.38-9.32L7.52,10,8.91,8.66A30,30,0,0,1,22.07,1.07L24,.55l.67,1.83A5.72,5.72,0,0,0,30,6.15a5.75,5.75,0,0,0,5.39-3.77L36.05.55l1.88.51A30.09,30.09,0,0,1,51.09,8.67L52.48,10l-1.26,1.49a5.73,5.73,0,0,0,5.39,9.32l1.92-.33L59,22.4a29.89,29.89,0,0,1,0,15.2l-.49,1.88-1.92-.33a5.72,5.72,0,0,0-5.38,9.32L52.48,50l-1.39,1.37a30,30,0,0,1-13.16,7.59l-1.88.52-.67-1.83a5.73,5.73,0,0,0-10.77,0Zm-10.8-10a25.78,25.78,0,0,0,8.38,4.84,10,10,0,0,1,16.94,0,25.91,25.91,0,0,0,8.38-4.83,9.95,9.95,0,0,1,8.46-14.67,25.62,25.62,0,0,0,0-9.68A9.94,9.94,0,0,1,46.85,10.5a25.78,25.78,0,0,0-8.38-4.84,10,10,0,0,1-16.94,0,25.91,25.91,0,0,0-8.38,4.83A9.95,9.95,0,0,1,4.69,25.16a25.62,25.62,0,0,0,0,9.68A9.94,9.94,0,0,1,13.15,49.5Z"/></svg>