<svg id="Calque_1" data-name="Calque 1" xmlns="http://www.w3.org/2000/svg" viewBox="0 0 60 60"><title>heart</title><path d="M30,53.6a7.32,7.32,0,0,1-5.51-2.43L9.13,33.71a16.23,16.23,0,0,1-2.34-2.66,6.69,6.69,0,0,1-1.25-2.18A15.57,15.57,0,0,1,4,22.12,15.7,15.7,0,0,1,30,10.25,15.7,15.7,0,0,1,54.64,28.49a6.43,6.43,0,0,1-1.42,2.63l-.45.51a15.11,15.11,0,0,1-1.53,1.74L35.55,51.17A7.31,7.31,0,0,1,30,53.6ZM19.72,10.79A11.31,11.31,0,0,0,9.55,27.09l.13.33a2.16,2.16,0,0,0,.46.8l.21.26a11.19,11.19,0,0,0,1.81,2.06l.18.18L27.81,48.27a3.22,3.22,0,0,0,4.45,0l15.87-18a11.25,11.25,0,0,0,1.19-1.36l.61-.7a2.1,2.1,0,0,0,.49-.93l.15-.44a11.32,11.32,0,0,0-18.9-12.07l-1.67,2-1.67-2A11.29,11.29,0,0,0,19.72,10.79Z"/></svg>