<svg id="Calque_1" data-name="Calque 1" xmlns="http://www.w3.org/2000/svg" viewBox="0 0 60 60"><title>hourglass</title><path d="M51.22,55.61H47l.06-.32a26.89,26.89,0,0,0,.49-5.17c0-8.52-3.92-15.88-9.59-19.39,5.67-3.51,9.59-10.87,9.59-19.39a26.78,26.78,0,0,0-.85-6.77l0-.18h4.55a2.2,2.2,0,0,0,0-4.39H8.78a2.2,2.2,0,0,0,0,4.39h5.65l0,.18a26.78,26.78,0,0,0-.85,6.77c0,8.52,3.92,15.88,9.58,19.39-5.66,3.51-9.58,10.87-9.58,19.39A27.7,27.7,0,0,0,14,55.29l.07.32H8.78a2.2,2.2,0,0,0,0,4.39H51.22a2.2,2.2,0,0,0,0-4.39ZM17.93,11.34a22.7,22.7,0,0,1,.71-5.67L19,4.39H42.13l.33,1.28a22.7,22.7,0,0,1,.71,5.67c0,9.48-5.66,17.2-12.62,17.2S17.93,20.82,17.93,11.34Zm.41,43.12a22.33,22.33,0,0,1-.41-4.34c0-9.48,5.66-17.19,12.62-17.19s12.62,7.71,12.62,17.19a23.13,23.13,0,0,1-.41,4.34l-.22,1.15h-24Z"/></svg>