<svg id="Calque_1" data-name="Calque 1" xmlns="http://www.w3.org/2000/svg" viewBox="0 0 60 60"><title>location</title><circle cx="30.06" cy="30" r="9.39"/><path d="M57.82,28.36H49.19a19.23,19.23,0,0,0-17-17.46V2.24a2.19,2.19,0,0,0-4.37,0v8.69A19.24,19.24,0,0,0,10.93,28.36H2.18a2.18,2.18,0,0,0,0,4.36h8.88A19.25,19.25,0,0,0,27.78,49.07v8.69a2.19,2.19,0,0,0,4.37,0V49.1A19.24,19.24,0,0,0,49.06,32.72h8.76a2.18,2.18,0,0,0,0-4.36ZM30.06,44.85A14.85,14.85,0,1,1,44.92,30,14.86,14.86,0,0,1,30.06,44.85Z"/></svg>