<svg id="Calque_1" data-name="Calque 1" xmlns="http://www.w3.org/2000/svg" viewBox="0 0 60 60"><title>map</title><circle cx="38.36" cy="12.34" r="2.81"/><path d="M59.66,8.61A4.16,4.16,0,0,0,55.5,4.48,4.26,4.26,0,0,0,54,4.75L49.2,6.58A12.41,12.41,0,0,0,44.46,2,12.62,12.62,0,0,0,38.35.41h-.14a11,11,0,0,0-2,.2,12.52,12.52,0,0,0-7.64,4.51A13.41,13.41,0,0,0,27.5,6.61L22.83,4.77a4.24,4.24,0,0,0-1.53-.29A4.19,4.19,0,0,0,20,4.67L2.91,10.09A4.15,4.15,0,0,0,0,14.14L.78,53.51a4.16,4.16,0,0,0,1.8,3.35,4.21,4.21,0,0,0,2.36.73,4.33,4.33,0,0,0,1.42-.25L21.18,52l16,5.41a4.31,4.31,0,0,0,1.33.22,4.21,4.21,0,0,0,1.12-.16L57,52.58a4.15,4.15,0,0,0,3-4ZM19.22,48.25,4.94,53.42,4.16,14.06,19.22,9.3ZM36.94,4.7a7.24,7.24,0,0,1,1.27-.12h.1a8.51,8.51,0,0,1,6.9,3.52h0A8.29,8.29,0,0,1,46,9.49a9.76,9.76,0,0,1,.58,1.6,7.19,7.19,0,0,1,.24,2.19,8.58,8.58,0,0,1-1.93,5.23c-.57.69-1.2,1.32-1.86,2l-.1.11a35.38,35.38,0,0,0-3.05,3.45c-.54.71-1,1.44-1.54,2.22-.53-.83-1.06-1.6-1.62-2.32l-.46-.57h0c-.37-.45-.77-.92-1.25-1.45S34,20.81,33.41,20.25L33,19.79a15.15,15.15,0,0,1-1.6-1.88A8.26,8.26,0,0,1,30,14.53a9,9,0,0,1-.07-2.48,7.62,7.62,0,0,1,.2-1.06,6.51,6.51,0,0,1,.23-.71l.09-.27c.13-.29.27-.59.43-.87a.08.08,0,0,1,0-.05,8.17,8.17,0,0,1,.58-.91c.11-.15.2-.31.32-.46A8.38,8.38,0,0,1,36.94,4.7ZM23.38,48.31V9.46l2.62,1a10,10,0,0,0-.21,1.09,13.4,13.4,0,0,0,.1,3.62,12.57,12.57,0,0,0,2,5.08A18.49,18.49,0,0,0,30,22.69l.45.47c.52.53,1,1.05,1.53,1.59S33,26,33.44,26.5s.94,1.28,1.4,2a4.19,4.19,0,0,0,1.44,1.37V52.66Zm17.07,4.58v-23a4.1,4.1,0,0,0,1.42-1.36c.44-.69.88-1.32,1.34-1.93a32.37,32.37,0,0,1,2.7-3l.11-.1c.7-.71,1.42-1.44,2.11-2.29A12.77,12.77,0,0,0,51,13.46a11.28,11.28,0,0,0-.29-3L55.5,8.64l.34,39.94Z"/></svg>