<svg id="Calque_1" data-name="Calque 1" xmlns="http://www.w3.org/2000/svg" viewBox="0 0 60 60"><title>repeat</title><path d="M1.75,39.49A1.75,1.75,0,0,1,.39,36.65l7.54-9.37a1.75,1.75,0,0,1,1.33-.65,1.78,1.78,0,0,1,1.35.61l7.87,9.08a1.75,1.75,0,1,1-2.64,2.29L9.34,31.1,3.11,38.84A1.74,1.74,0,0,1,1.75,39.49Z"/><path d="M50.38,33.94h0A1.7,1.7,0,0,1,49,33.29l-7.54-9.36a1.75,1.75,0,1,1,2.72-2.19l6.23,7.73,6.5-7.5a1.74,1.74,0,1,1,2.64,2.28L51.7,33.34A1.71,1.71,0,0,1,50.38,33.94Z"/><path d="M29.77,53.9A23.54,23.54,0,0,1,8.28,39.73a1.75,1.75,0,1,1,3.2-1.41,19.88,19.88,0,0,0,36.58,0,1.75,1.75,0,1,1,3.2,1.41A23.54,23.54,0,0,1,29.77,53.9Z"/><path d="M49.66,22.72a1.75,1.75,0,0,1-1.6-1,19.88,19.88,0,0,0-36.58,0,1.75,1.75,0,1,1-3.2-1.41,23.38,23.38,0,0,1,43,0,1.75,1.75,0,0,1-.9,2.31A1.68,1.68,0,0,1,49.66,22.72Z"/></svg>