<svg id="Calque_1" data-name="Calque 1" xmlns="http://www.w3.org/2000/svg" viewBox="0 0 60 60"><title>spiral</title><path d="M30.05,60A30,30,0,0,1,13.83,4.74a2.19,2.19,0,0,1,2.36,3.68,25.62,25.62,0,1,0,14.12-4,2.19,2.19,0,0,1-2.15-2.22A2.23,2.23,0,0,1,30.37,0a30,30,0,0,1-.32,60Z"/><path d="M30,52.78A22.8,22.8,0,0,1,9.34,20.36a1.83,1.83,0,0,1,3.31,1.54,19.14,19.14,0,1,0,18.12-11A1.82,1.82,0,0,1,29,9a1.79,1.79,0,0,1,1.89-1.74A22.79,22.79,0,0,1,30,52.78Z"/><path d="M29.9,45.45A15.51,15.51,0,0,1,16,36.71a1.46,1.46,0,1,1,2.62-1.27,12.59,12.59,0,1,0,13-18,1.47,1.47,0,0,1-1.25-1.64,1.44,1.44,0,0,1,1.64-1.25,15.5,15.5,0,0,1-2,30.87Z"/></svg>