<svg id="Calque_1" data-name="Calque 1" xmlns="http://www.w3.org/2000/svg" viewBox="0 0 60 60"><title>user</title><path d="M48.27,31.8a21,21,0,0,0-9.55-6.53,14.15,14.15,0,1,0-17.44,0,21,21,0,0,0-9.55,6.53c-7.07,8.46-7.1,21-6.13,26.4A2.2,2.2,0,0,0,7.76,60H52.24a2.2,2.2,0,0,0,2.16-1.8C55.37,52.77,55.34,40.26,48.27,31.8ZM20.22,14.15A9.78,9.78,0,1,1,30,23.92,9.79,9.79,0,0,1,20.22,14.15ZM50.34,55.63H9.66c-.58-5.8.38-15,5.42-21,3.51-4.18,8.53-6.31,14.92-6.31s11.41,2.13,14.92,6.31C50,40.63,50.92,49.83,50.34,55.63Z"/></svg>